<mxfile host="Electron" modified="2024-07-12T14:36:35.322Z" agent="Mozilla/5.0 (Macintosh; Intel Mac OS X 10_15_7) AppleWebKit/537.36 (KHTML, like Gecko) draw.io/24.6.4 Chrome/124.0.6367.207 Electron/30.0.6 Safari/537.36" etag="cNI7pm_OsWIH1e33COt3" version="24.6.4" type="device">
  <diagram name="Page-1" id="yVggRYEDdLq6nvK1fnKF">
    <mxGraphModel dx="336" dy="1993" grid="1" gridSize="10" guides="1" tooltips="1" connect="1" arrows="1" fold="1" page="1" pageScale="1" pageWidth="827" pageHeight="1169" math="0" shadow="0">
      <root>
        <mxCell id="0" />
        <mxCell id="1" parent="0" />
        <mxCell id="vFImRc7Q_ZSqUfk7O-XE-1" value="D. PAYOUT FLOW" style="text;html=1;strokeColor=#d6b656;fillColor=#000000;align=center;verticalAlign=middle;whiteSpace=wrap;overflow=hidden;fontColor=#FFFFFF;" parent="1" vertex="1">
          <mxGeometry x="1790" y="-1140" width="260" height="50" as="geometry" />
        </mxCell>
        <mxCell id="vFImRc7Q_ZSqUfk7O-XE-2" style="edgeStyle=orthogonalEdgeStyle;rounded=0;orthogonalLoop=1;jettySize=auto;html=1;" parent="1" source="vFImRc7Q_ZSqUfk7O-XE-4" target="vFImRc7Q_ZSqUfk7O-XE-6" edge="1">
          <mxGeometry relative="1" as="geometry" />
        </mxCell>
        <mxCell id="vFImRc7Q_ZSqUfk7O-XE-3" value="1.2 Verify JWT" style="edgeLabel;html=1;align=center;verticalAlign=middle;resizable=0;points=[];" parent="vFImRc7Q_ZSqUfk7O-XE-2" vertex="1" connectable="0">
          <mxGeometry x="0.0044" relative="1" as="geometry">
            <mxPoint as="offset" />
          </mxGeometry>
        </mxCell>
        <mxCell id="vFImRc7Q_ZSqUfk7O-XE-4" value="EGAPAY DISBURSEMENT API" style="aspect=fixed;sketch=0;html=1;dashed=0;whitespace=wrap;verticalLabelPosition=bottom;verticalAlign=top;fillColor=#2875E2;strokeColor=#ffffff;points=[[0.005,0.63,0],[0.1,0.2,0],[0.9,0.2,0],[0.5,0,0],[0.995,0.63,0],[0.72,0.99,0],[0.5,1,0],[0.28,0.99,0]];shape=mxgraph.kubernetes.icon2;prIcon=api" parent="1" vertex="1">
          <mxGeometry x="1909.91" y="-794" width="50" height="48" as="geometry" />
        </mxCell>
        <mxCell id="vFImRc7Q_ZSqUfk7O-XE-5" style="edgeStyle=orthogonalEdgeStyle;rounded=0;orthogonalLoop=1;jettySize=auto;html=1;" parent="1" source="vFImRc7Q_ZSqUfk7O-XE-6" target="vFImRc7Q_ZSqUfk7O-XE-9" edge="1">
          <mxGeometry relative="1" as="geometry" />
        </mxCell>
        <mxCell id="vFImRc7Q_ZSqUfk7O-XE-6" value="AUTH SERVICE" style="aspect=fixed;sketch=0;html=1;dashed=0;whitespace=wrap;verticalLabelPosition=bottom;verticalAlign=top;fillColor=#2875E2;strokeColor=#ffffff;points=[[0.005,0.63,0],[0.1,0.2,0],[0.9,0.2,0],[0.5,0,0],[0.995,0.63,0],[0.72,0.99,0],[0.5,1,0],[0.28,0.99,0]];shape=mxgraph.kubernetes.icon2;kubernetesLabel=1;prIcon=api" parent="1" vertex="1">
          <mxGeometry x="2089.91" y="-794" width="50" height="48" as="geometry" />
        </mxCell>
        <mxCell id="vFImRc7Q_ZSqUfk7O-XE-7" style="edgeStyle=orthogonalEdgeStyle;rounded=0;orthogonalLoop=1;jettySize=auto;html=1;entryX=0.5;entryY=0;entryDx=0;entryDy=0;entryPerimeter=0;" parent="1" source="vFImRc7Q_ZSqUfk7O-XE-6" target="vFImRc7Q_ZSqUfk7O-XE-4" edge="1">
          <mxGeometry relative="1" as="geometry">
            <Array as="points">
              <mxPoint x="2114.91" y="-814" />
              <mxPoint x="1934.91" y="-814" />
            </Array>
          </mxGeometry>
        </mxCell>
        <mxCell id="vFImRc7Q_ZSqUfk7O-XE-8" value="1.3 Receives&lt;br&gt;verification response" style="edgeLabel;html=1;align=center;verticalAlign=middle;resizable=0;points=[];" parent="vFImRc7Q_ZSqUfk7O-XE-7" vertex="1" connectable="0">
          <mxGeometry x="-0.013" y="-1" relative="1" as="geometry">
            <mxPoint as="offset" />
          </mxGeometry>
        </mxCell>
        <mxCell id="vFImRc7Q_ZSqUfk7O-XE-9" value="TOKEN CACHE" style="image;sketch=0;aspect=fixed;html=1;points=[];align=center;fontSize=12;image=img/lib/mscae/Cache_Redis_Product.svg;" parent="1" vertex="1">
          <mxGeometry x="2239.91" y="-782.5" width="29.76" height="25" as="geometry" />
        </mxCell>
        <mxCell id="vFImRc7Q_ZSqUfk7O-XE-10" style="edgeStyle=orthogonalEdgeStyle;rounded=0;orthogonalLoop=1;jettySize=auto;html=1;entryX=0;entryY=0.5;entryDx=0;entryDy=0;" parent="1" source="vFImRc7Q_ZSqUfk7O-XE-12" target="vFImRc7Q_ZSqUfk7O-XE-13" edge="1">
          <mxGeometry relative="1" as="geometry">
            <mxPoint x="2120" y="707" as="targetPoint" />
          </mxGeometry>
        </mxCell>
        <mxCell id="vFImRc7Q_ZSqUfk7O-XE-11" value="1.7 HTTP &lt;br&gt;request / response" style="edgeLabel;html=1;align=center;verticalAlign=middle;resizable=0;points=[];" parent="vFImRc7Q_ZSqUfk7O-XE-10" vertex="1" connectable="0">
          <mxGeometry x="-0.0045" y="1" relative="1" as="geometry">
            <mxPoint x="-1" y="-1" as="offset" />
          </mxGeometry>
        </mxCell>
        <mxCell id="vFImRc7Q_ZSqUfk7O-XE-12" value="PAY PARTNER &lt;br&gt;DISBURSEMENT&lt;br&gt;&lt;div&gt;REQUEST CONSUMER&lt;br&gt;(MTN, ATMONEY, TELECEL)&lt;/div&gt;" style="aspect=fixed;sketch=0;html=1;dashed=0;whitespace=wrap;verticalLabelPosition=bottom;verticalAlign=top;fillColor=#2875E2;strokeColor=#ffffff;points=[[0.005,0.63,0],[0.1,0.2,0],[0.9,0.2,0],[0.5,0,0],[0.995,0.63,0],[0.72,0.99,0],[0.5,1,0],[0.28,0.99,0]];shape=mxgraph.kubernetes.icon2;kubernetesLabel=1;prIcon=job" parent="1" vertex="1">
          <mxGeometry x="1910.0000000000002" y="687" width="50" height="48" as="geometry" />
        </mxCell>
        <mxCell id="vFImRc7Q_ZSqUfk7O-XE-13" value="PAY PARTNER SERVICE" style="image;aspect=fixed;perimeter=ellipsePerimeter;html=1;align=center;shadow=0;dashed=0;spacingTop=3;image=img/lib/active_directory/internet_cloud.svg;" parent="1" vertex="1">
          <mxGeometry x="2160" y="700.25" width="34.13" height="21.5" as="geometry" />
        </mxCell>
        <mxCell id="vFImRc7Q_ZSqUfk7O-XE-14" style="edgeStyle=orthogonalEdgeStyle;rounded=0;orthogonalLoop=1;jettySize=auto;html=1;entryX=0.005;entryY=0.63;entryDx=0;entryDy=0;entryPerimeter=0;" parent="1" target="vFImRc7Q_ZSqUfk7O-XE-4" edge="1">
          <mxGeometry relative="1" as="geometry">
            <Array as="points">
              <mxPoint x="1889.91" y="-1000" />
              <mxPoint x="1889.91" y="-764" />
            </Array>
            <mxPoint x="1911.91" y="-1000" as="sourcePoint" />
          </mxGeometry>
        </mxCell>
        <mxCell id="vFImRc7Q_ZSqUfk7O-XE-15" value="1.1 Sends initial request&lt;div&gt;for (disbursement)&lt;/div&gt;&lt;div&gt;transaction&lt;/div&gt;" style="edgeLabel;html=1;align=center;verticalAlign=middle;resizable=0;points=[];" parent="vFImRc7Q_ZSqUfk7O-XE-14" vertex="1" connectable="0">
          <mxGeometry x="0.0201" relative="1" as="geometry">
            <mxPoint as="offset" />
          </mxGeometry>
        </mxCell>
        <mxCell id="vFImRc7Q_ZSqUfk7O-XE-16" value="TRANSACTION&lt;div&gt;CACHE&lt;/div&gt;" style="image;sketch=0;aspect=fixed;html=1;points=[];align=center;fontSize=12;image=img/lib/mscae/Cache_Redis_Product.svg;" parent="1" vertex="1">
          <mxGeometry x="2130" y="422" width="33.33" height="28" as="geometry" />
        </mxCell>
        <mxCell id="vFImRc7Q_ZSqUfk7O-XE-17" value="" style="edgeStyle=orthogonalEdgeStyle;rounded=0;orthogonalLoop=1;jettySize=auto;html=1;" parent="1" source="vFImRc7Q_ZSqUfk7O-XE-39" target="vFImRc7Q_ZSqUfk7O-XE-19" edge="1">
          <mxGeometry relative="1" as="geometry">
            <mxPoint x="1935.0400000000002" y="48" as="targetPoint" />
            <mxPoint x="1935.0400000000002" y="-334" as="sourcePoint" />
          </mxGeometry>
        </mxCell>
        <mxCell id="vFImRc7Q_ZSqUfk7O-XE-18" style="edgeStyle=orthogonalEdgeStyle;rounded=0;orthogonalLoop=1;jettySize=auto;html=1;" parent="1" source="vFImRc7Q_ZSqUfk7O-XE-19" edge="1">
          <mxGeometry relative="1" as="geometry">
            <mxPoint x="1935.0000000000002" y="532" as="targetPoint" />
          </mxGeometry>
        </mxCell>
        <mxCell id="vFImRc7Q_ZSqUfk7O-XE-19" value="PAY PARTNER&lt;br&gt;ROUTER CONSUMER" style="aspect=fixed;sketch=0;html=1;dashed=0;whitespace=wrap;verticalLabelPosition=bottom;verticalAlign=top;fillColor=#2875E2;strokeColor=#ffffff;points=[[0.005,0.63,0],[0.1,0.2,0],[0.9,0.2,0],[0.5,0,0],[0.995,0.63,0],[0.72,0.99,0],[0.5,1,0],[0.28,0.99,0]];shape=mxgraph.kubernetes.icon2;kubernetesLabel=1;prIcon=job" parent="1" vertex="1">
          <mxGeometry x="1910.0000000000002" y="402" width="50" height="48" as="geometry" />
        </mxCell>
        <mxCell id="vFImRc7Q_ZSqUfk7O-XE-20" value="" style="edgeStyle=orthogonalEdgeStyle;rounded=0;orthogonalLoop=1;jettySize=auto;html=1;" parent="1" source="vFImRc7Q_ZSqUfk7O-XE-4" target="vFImRc7Q_ZSqUfk7O-XE-21" edge="1">
          <mxGeometry relative="1" as="geometry">
            <mxPoint x="1934.91" y="-604" as="targetPoint" />
            <mxPoint x="1934.91" y="-746" as="sourcePoint" />
          </mxGeometry>
        </mxCell>
        <mxCell id="vFImRc7Q_ZSqUfk7O-XE-21" value="&lt;span style=&quot;&quot;&gt;1.3 Produces&lt;br&gt;egapay.disbursement_request&lt;/span&gt;" style="sketch=0;points=[[0,0,0],[0.25,0,0],[0.5,0,0],[0.75,0,0],[1,0,0],[0,1,0],[0.25,1,0],[0.5,1,0],[0.75,1,0],[1,1,0],[0,0.25,0],[0,0.5,0],[0,0.75,0],[1,0.25,0],[1,0.5,0],[1,0.75,0]];outlineConnect=0;fontColor=#FFFFFF;fillColor=#8C4FFF;strokeColor=#ffffff;dashed=0;verticalLabelPosition=bottom;verticalAlign=top;align=center;html=1;fontSize=12;fontStyle=0;aspect=fixed;shape=mxgraph.aws4.resourceIcon;resIcon=mxgraph.aws4.managed_streaming_for_kafka;labelBackgroundColor=default;" parent="1" vertex="1">
          <mxGeometry x="1920.91" y="-694" width="28" height="28" as="geometry" />
        </mxCell>
        <mxCell id="vFImRc7Q_ZSqUfk7O-XE-22" style="edgeStyle=orthogonalEdgeStyle;rounded=0;orthogonalLoop=1;jettySize=auto;html=1;entryX=0;entryY=0.429;entryDx=0;entryDy=0;entryPerimeter=0;" parent="1" source="vFImRc7Q_ZSqUfk7O-XE-19" target="vFImRc7Q_ZSqUfk7O-XE-16" edge="1">
          <mxGeometry relative="1" as="geometry" />
        </mxCell>
        <mxCell id="vFImRc7Q_ZSqUfk7O-XE-23" value="1.5 Insert pending&lt;div&gt;&amp;nbsp;request&lt;/div&gt;" style="edgeLabel;html=1;align=center;verticalAlign=middle;resizable=0;points=[];" parent="vFImRc7Q_ZSqUfk7O-XE-22" vertex="1" connectable="0">
          <mxGeometry x="-0.0922" y="2" relative="1" as="geometry">
            <mxPoint as="offset" />
          </mxGeometry>
        </mxCell>
        <mxCell id="vFImRc7Q_ZSqUfk7O-XE-24" value="&lt;span style=&quot;&quot;&gt;1.6 Produces&lt;br&gt;egapay.&lt;/span&gt;disbursement&lt;span style=&quot;&quot;&gt;_request_({&lt;/span&gt;pp_route&lt;span style=&quot;&quot;&gt;})&lt;/span&gt;" style="sketch=0;points=[[0,0,0],[0.25,0,0],[0.5,0,0],[0.75,0,0],[1,0,0],[0,1,0],[0.25,1,0],[0.5,1,0],[0.75,1,0],[1,1,0],[0,0.25,0],[0,0.5,0],[0,0.75,0],[1,0.25,0],[1,0.5,0],[1,0.75,0]];outlineConnect=0;fontColor=#FFFFFF;fillColor=#8C4FFF;strokeColor=#ffffff;dashed=0;verticalLabelPosition=bottom;verticalAlign=top;align=center;html=1;fontSize=12;fontStyle=0;aspect=fixed;shape=mxgraph.aws4.resourceIcon;resIcon=mxgraph.aws4.managed_streaming_for_kafka;labelBackgroundColor=default;" parent="1" vertex="1">
          <mxGeometry x="1921.0000000000002" y="532" width="28" height="28" as="geometry" />
        </mxCell>
        <mxCell id="vFImRc7Q_ZSqUfk7O-XE-25" style="edgeStyle=orthogonalEdgeStyle;rounded=0;orthogonalLoop=1;jettySize=auto;html=1;entryX=0.5;entryY=0;entryDx=0;entryDy=0;entryPerimeter=0;" parent="1" source="vFImRc7Q_ZSqUfk7O-XE-24" target="vFImRc7Q_ZSqUfk7O-XE-12" edge="1">
          <mxGeometry relative="1" as="geometry" />
        </mxCell>
        <mxCell id="vFImRc7Q_ZSqUfk7O-XE-26" value="CLIENT&lt;br&gt;(MERCHANT/CUSTOMER/DEVELOPER API)" style="image;points=[];aspect=fixed;html=1;align=center;shadow=0;dashed=0;image=img/lib/allied_telesis/buildings/Medium_Business_Building.svg;" parent="1" vertex="1">
          <mxGeometry x="1916.2399999999998" y="-1030" width="37.33" height="48" as="geometry" />
        </mxCell>
        <mxCell id="vFImRc7Q_ZSqUfk7O-XE-28" value="" style="edgeStyle=orthogonalEdgeStyle;rounded=0;orthogonalLoop=1;jettySize=auto;html=1;" parent="1" target="vFImRc7Q_ZSqUfk7O-XE-27" edge="1">
          <mxGeometry relative="1" as="geometry">
            <mxPoint x="1935.13" y="192" as="targetPoint" />
            <mxPoint x="1935.0300000000002" y="-10" as="sourcePoint" />
          </mxGeometry>
        </mxCell>
        <mxCell id="vFImRc7Q_ZSqUfk7O-XE-33" style="edgeStyle=orthogonalEdgeStyle;rounded=0;orthogonalLoop=1;jettySize=auto;html=1;exitX=0.995;exitY=0.63;exitDx=0;exitDy=0;exitPerimeter=0;" parent="1" source="vFImRc7Q_ZSqUfk7O-XE-35" target="vFImRc7Q_ZSqUfk7O-XE-30" edge="1">
          <mxGeometry relative="1" as="geometry" />
        </mxCell>
        <mxCell id="vFImRc7Q_ZSqUfk7O-XE-34" value="1.5 Get connection string&lt;div&gt;for specified country&lt;/div&gt;" style="edgeLabel;html=1;align=center;verticalAlign=middle;resizable=0;points=[];" parent="vFImRc7Q_ZSqUfk7O-XE-33" vertex="1" connectable="0">
          <mxGeometry x="-0.0013" y="1" relative="1" as="geometry">
            <mxPoint as="offset" />
          </mxGeometry>
        </mxCell>
        <mxCell id="vFImRc7Q_ZSqUfk7O-XE-27" value="&lt;div&gt;PAYOUT ACCOUNTING&lt;br&gt;&lt;div&gt;CONSUMER&lt;/div&gt;&lt;/div&gt;" style="aspect=fixed;sketch=0;html=1;dashed=0;whitespace=wrap;verticalLabelPosition=bottom;verticalAlign=top;fillColor=#2875E2;strokeColor=#ffffff;points=[[0.005,0.63,0],[0.1,0.2,0],[0.9,0.2,0],[0.5,0,0],[0.995,0.63,0],[0.72,0.99,0],[0.5,1,0],[0.28,0.99,0]];shape=mxgraph.kubernetes.icon2;kubernetesLabel=1;prIcon=job;labelBackgroundColor=default;" parent="1" vertex="1">
          <mxGeometry x="1910.0400000000002" y="62" width="50" height="48" as="geometry" />
        </mxCell>
        <mxCell id="vFImRc7Q_ZSqUfk7O-XE-29" value="COUNTRY CACHE" style="image;sketch=0;aspect=fixed;html=1;points=[];align=center;fontSize=12;image=img/lib/mscae/Cache_Redis_Product.svg;" parent="1" vertex="1">
          <mxGeometry x="1699.9999999999998" y="-548.5" width="29.76" height="25" as="geometry" />
        </mxCell>
        <mxCell id="vFImRc7Q_ZSqUfk7O-XE-30" value="DB CONNECTION STRING&lt;div&gt;CACHE&lt;/div&gt;" style="image;sketch=0;aspect=fixed;html=1;points=[];align=center;fontSize=12;image=img/lib/mscae/Cache_Redis_Product.svg;" parent="1" vertex="1">
          <mxGeometry x="2220" y="-540" width="29.76" height="25" as="geometry" />
        </mxCell>
        <mxCell id="vFImRc7Q_ZSqUfk7O-XE-31" style="edgeStyle=orthogonalEdgeStyle;rounded=0;orthogonalLoop=1;jettySize=auto;html=1;entryX=0.946;entryY=0.473;entryDx=0;entryDy=0;entryPerimeter=0;" parent="1" source="vFImRc7Q_ZSqUfk7O-XE-35" target="vFImRc7Q_ZSqUfk7O-XE-29" edge="1">
          <mxGeometry relative="1" as="geometry" />
        </mxCell>
        <mxCell id="vFImRc7Q_ZSqUfk7O-XE-32" value="1.4 Get country&amp;nbsp;&lt;div&gt;for merchant&lt;/div&gt;" style="edgeLabel;html=1;align=center;verticalAlign=middle;resizable=0;points=[];" parent="vFImRc7Q_ZSqUfk7O-XE-31" vertex="1" connectable="0">
          <mxGeometry x="0.1062" relative="1" as="geometry">
            <mxPoint as="offset" />
          </mxGeometry>
        </mxCell>
        <mxCell id="vFImRc7Q_ZSqUfk7O-XE-36" value="" style="edgeStyle=orthogonalEdgeStyle;rounded=0;orthogonalLoop=1;jettySize=auto;html=1;" parent="1" source="vFImRc7Q_ZSqUfk7O-XE-21" target="vFImRc7Q_ZSqUfk7O-XE-35" edge="1">
          <mxGeometry relative="1" as="geometry">
            <mxPoint x="1935" y="-380" as="targetPoint" />
            <mxPoint x="1935" y="-666" as="sourcePoint" />
          </mxGeometry>
        </mxCell>
        <mxCell id="vFImRc7Q_ZSqUfk7O-XE-35" value="DB CONNECTION STRING&lt;div&gt;CONSUMER&lt;/div&gt;" style="aspect=fixed;sketch=0;html=1;dashed=0;whitespace=wrap;verticalLabelPosition=bottom;verticalAlign=top;fillColor=#2875E2;strokeColor=#ffffff;points=[[0.005,0.63,0],[0.1,0.2,0],[0.9,0.2,0],[0.5,0,0],[0.995,0.63,0],[0.72,0.99,0],[0.5,1,0],[0.28,0.99,0]];shape=mxgraph.kubernetes.icon2;kubernetesLabel=1;prIcon=job;labelBackgroundColor=default;" parent="1" vertex="1">
          <mxGeometry x="1909.9" y="-560" width="50" height="48" as="geometry" />
        </mxCell>
        <mxCell id="vFImRc7Q_ZSqUfk7O-XE-38" value="" style="edgeStyle=orthogonalEdgeStyle;rounded=0;orthogonalLoop=1;jettySize=auto;html=1;" parent="1" source="vFImRc7Q_ZSqUfk7O-XE-35" target="vFImRc7Q_ZSqUfk7O-XE-37" edge="1">
          <mxGeometry relative="1" as="geometry">
            <mxPoint x="1935" y="-350" as="targetPoint" />
            <mxPoint x="1935" y="-512" as="sourcePoint" />
          </mxGeometry>
        </mxCell>
        <mxCell id="vFImRc7Q_ZSqUfk7O-XE-37" value="&lt;span style=&quot;&quot;&gt;1.6 Produces&lt;br&gt;egapay.disbursement_request_validate_sender_beneficiary_details&lt;/span&gt;" style="sketch=0;points=[[0,0,0],[0.25,0,0],[0.5,0,0],[0.75,0,0],[1,0,0],[0,1,0],[0.25,1,0],[0.5,1,0],[0.75,1,0],[1,1,0],[0,0.25,0],[0,0.5,0],[0,0.75,0],[1,0.25,0],[1,0.5,0],[1,0.75,0]];outlineConnect=0;fontColor=#FFFFFF;fillColor=#8C4FFF;strokeColor=#ffffff;dashed=0;verticalLabelPosition=bottom;verticalAlign=top;align=center;html=1;fontSize=12;fontStyle=0;aspect=fixed;shape=mxgraph.aws4.resourceIcon;resIcon=mxgraph.aws4.managed_streaming_for_kafka;labelBackgroundColor=default;" parent="1" vertex="1">
          <mxGeometry x="1920.9" y="-450" width="28" height="28" as="geometry" />
        </mxCell>
        <mxCell id="vFImRc7Q_ZSqUfk7O-XE-40" value="" style="edgeStyle=orthogonalEdgeStyle;rounded=0;orthogonalLoop=1;jettySize=auto;html=1;" parent="1" source="vFImRc7Q_ZSqUfk7O-XE-27" target="vFImRc7Q_ZSqUfk7O-XE-39" edge="1">
          <mxGeometry relative="1" as="geometry">
            <mxPoint x="1935.13" y="402" as="targetPoint" />
            <mxPoint x="1935.13" y="110" as="sourcePoint" />
          </mxGeometry>
        </mxCell>
        <mxCell id="vFImRc7Q_ZSqUfk7O-XE-39" value="&lt;span style=&quot;&quot;&gt;1.6 Produces&lt;br&gt;egapay.disbursement_request_fees_computed&lt;/span&gt;" style="sketch=0;points=[[0,0,0],[0.25,0,0],[0.5,0,0],[0.75,0,0],[1,0,0],[0,1,0],[0.25,1,0],[0.5,1,0],[0.75,1,0],[1,1,0],[0,0.25,0],[0,0.5,0],[0,0.75,0],[1,0.25,0],[1,0.5,0],[1,0.75,0]];outlineConnect=0;fontColor=#FFFFFF;fillColor=#8C4FFF;strokeColor=#ffffff;dashed=0;verticalLabelPosition=bottom;verticalAlign=top;align=center;html=1;fontSize=12;fontStyle=0;aspect=fixed;shape=mxgraph.aws4.resourceIcon;resIcon=mxgraph.aws4.managed_streaming_for_kafka;labelBackgroundColor=default;" parent="1" vertex="1">
          <mxGeometry x="1921.0000000000002" y="212" width="28" height="28" as="geometry" />
        </mxCell>
        <mxCell id="vFImRc7Q_ZSqUfk7O-XE-45" value="" style="edgeStyle=orthogonalEdgeStyle;rounded=0;orthogonalLoop=1;jettySize=auto;html=1;" parent="1" source="vFImRc7Q_ZSqUfk7O-XE-41" edge="1">
          <mxGeometry relative="1" as="geometry">
            <mxPoint x="1934.91" y="-218" as="targetPoint" />
          </mxGeometry>
        </mxCell>
        <mxCell id="vFImRc7Q_ZSqUfk7O-XE-41" value="SENDER BENEFICIARY&amp;nbsp;&lt;div&gt;VALIDATION&amp;nbsp;&lt;span style=&quot;background-color: initial;&quot;&gt;CONSUMER&lt;/span&gt;&lt;/div&gt;" style="aspect=fixed;sketch=0;html=1;dashed=0;whitespace=wrap;verticalLabelPosition=bottom;verticalAlign=top;fillColor=#2875E2;strokeColor=#ffffff;points=[[0.005,0.63,0],[0.1,0.2,0],[0.9,0.2,0],[0.5,0,0],[0.995,0.63,0],[0.72,0.99,0],[0.5,1,0],[0.28,0.99,0]];shape=mxgraph.kubernetes.icon2;kubernetesLabel=1;prIcon=job" parent="1" vertex="1">
          <mxGeometry x="1909.91" y="-330" width="50" height="48" as="geometry" />
        </mxCell>
        <mxCell id="vFImRc7Q_ZSqUfk7O-XE-42" style="edgeStyle=orthogonalEdgeStyle;rounded=0;orthogonalLoop=1;jettySize=auto;html=1;entryX=0.5;entryY=0;entryDx=0;entryDy=0;entryPerimeter=0;" parent="1" source="vFImRc7Q_ZSqUfk7O-XE-37" target="vFImRc7Q_ZSqUfk7O-XE-41" edge="1">
          <mxGeometry relative="1" as="geometry" />
        </mxCell>
        <mxCell id="vFImRc7Q_ZSqUfk7O-XE-43" value="&lt;span style=&quot;&quot;&gt;1.7b Produces&lt;br&gt;egapay.disbursement_request_compute_fees&lt;/span&gt;" style="sketch=0;points=[[0,0,0],[0.25,0,0],[0.5,0,0],[0.75,0,0],[1,0,0],[0,1,0],[0.25,1,0],[0.5,1,0],[0.75,1,0],[1,1,0],[0,0.25,0],[0,0.5,0],[0,0.75,0],[1,0.25,0],[1,0.5,0],[1,0.75,0]];outlineConnect=0;fontColor=#FFFFFF;fillColor=#8C4FFF;strokeColor=#ffffff;dashed=0;verticalLabelPosition=bottom;verticalAlign=top;align=center;html=1;fontSize=12;fontStyle=0;aspect=fixed;shape=mxgraph.aws4.resourceIcon;resIcon=mxgraph.aws4.managed_streaming_for_kafka;labelBackgroundColor=default;" parent="1" vertex="1">
          <mxGeometry x="1921.0400000000002" y="-40" width="28" height="28" as="geometry" />
        </mxCell>
        <mxCell id="vFImRc7Q_ZSqUfk7O-XE-47" value="" style="edgeStyle=orthogonalEdgeStyle;rounded=0;orthogonalLoop=1;jettySize=auto;html=1;" parent="1" source="vFImRc7Q_ZSqUfk7O-XE-46" target="vFImRc7Q_ZSqUfk7O-XE-43" edge="1">
          <mxGeometry relative="1" as="geometry" />
        </mxCell>
        <mxCell id="vFImRc7Q_ZSqUfk7O-XE-48" value="Yes, passed" style="edgeLabel;html=1;align=center;verticalAlign=middle;resizable=0;points=[];" parent="vFImRc7Q_ZSqUfk7O-XE-47" vertex="1" connectable="0">
          <mxGeometry x="-0.0833" y="-1" relative="1" as="geometry">
            <mxPoint as="offset" />
          </mxGeometry>
        </mxCell>
        <mxCell id="vFImRc7Q_ZSqUfk7O-XE-49" style="edgeStyle=orthogonalEdgeStyle;rounded=0;orthogonalLoop=1;jettySize=auto;html=1;entryX=0.005;entryY=0.63;entryDx=0;entryDy=0;entryPerimeter=0;" parent="1" source="vFImRc7Q_ZSqUfk7O-XE-46" edge="1">
          <mxGeometry relative="1" as="geometry">
            <mxPoint x="2360.2500000000005" y="-179.76" as="targetPoint" />
          </mxGeometry>
        </mxCell>
        <mxCell id="vFImRc7Q_ZSqUfk7O-XE-51" value="No, failed validation" style="edgeLabel;html=1;align=center;verticalAlign=middle;resizable=0;points=[];" parent="vFImRc7Q_ZSqUfk7O-XE-49" vertex="1" connectable="0">
          <mxGeometry x="-0.1192" y="1" relative="1" as="geometry">
            <mxPoint x="-77" y="1" as="offset" />
          </mxGeometry>
        </mxCell>
        <mxCell id="vFImRc7Q_ZSqUfk7O-XE-46" value="has validation&lt;div&gt;passed?&lt;/div&gt;" style="rhombus;whiteSpace=wrap;html=1;" parent="1" vertex="1">
          <mxGeometry x="1895" y="-220" width="80" height="80" as="geometry" />
        </mxCell>
        <mxCell id="vFImRc7Q_ZSqUfk7O-XE-52" value="&lt;span style=&quot;&quot;&gt;1.7a Produces&lt;br&gt;egapay.disbursement_request_failed&lt;/span&gt;" style="sketch=0;points=[[0,0,0],[0.25,0,0],[0.5,0,0],[0.75,0,0],[1,0,0],[0,1,0],[0.25,1,0],[0.5,1,0],[0.75,1,0],[1,1,0],[0,0.25,0],[0,0.5,0],[0,0.75,0],[1,0.25,0],[1,0.5,0],[1,0.75,0]];outlineConnect=0;fontColor=#FFFFFF;fillColor=#8C4FFF;strokeColor=#ffffff;dashed=0;verticalLabelPosition=bottom;verticalAlign=top;align=center;html=1;fontSize=12;fontStyle=0;aspect=fixed;shape=mxgraph.aws4.resourceIcon;resIcon=mxgraph.aws4.managed_streaming_for_kafka;labelBackgroundColor=default;" parent="1" vertex="1">
          <mxGeometry x="2170" y="-200" width="28" height="28" as="geometry" />
        </mxCell>
        <mxCell id="vFImRc7Q_ZSqUfk7O-XE-53" value="a. Calculate fees + tax&lt;div&gt;b. Check if merchant has enough&lt;/div&gt;&lt;div&gt;balance to perform transaction&lt;/div&gt;" style="shape=document;whiteSpace=wrap;html=1;boundedLbl=1;fillColor=#FFF4C3;fontColor=#1D1D1C;" parent="1" vertex="1">
          <mxGeometry x="2040" y="69" width="220" height="90" as="geometry" />
        </mxCell>
        <mxCell id="vFImRc7Q_ZSqUfk7O-XE-56" value="MSSQL CONSUMER" style="aspect=fixed;sketch=0;html=1;dashed=0;whitespace=wrap;verticalLabelPosition=bottom;verticalAlign=top;fillColor=#2875E2;strokeColor=#ffffff;points=[[0.005,0.63,0],[0.1,0.2,0],[0.9,0.2,0],[0.5,0,0],[0.995,0.63,0],[0.72,0.99,0],[0.5,1,0],[0.28,0.99,0]];shape=mxgraph.kubernetes.icon2;kubernetesLabel=1;prIcon=job" parent="1" vertex="1">
          <mxGeometry x="1640.0000000000002" y="402" width="50" height="48" as="geometry" />
        </mxCell>
      </root>
    </mxGraphModel>
  </diagram>
</mxfile>
